<?xml version="1.0" encoding="utf-8"?><!-- Uploaded to: SVG Repo, www.svgrepo.com, Generator: SVG Repo Mixer Tools -->
<svg width="800px" height="800px" viewBox="0 -0.5 25 25" fill="none" xmlns="http://www.w3.org/2000/svg">
<path fill-rule="evenodd" clip-rule="evenodd" d="M15.5004 8C15.5004 9.65685 14.1572 11 12.5004 11C10.8435 11 9.50037 9.65685 9.50037 8C9.50037 6.34315 10.8435 5 12.5004 5C13.296 5 14.0591 5.31607 14.6217 5.87868C15.1843 6.44129 15.5004 7.20435 15.5004 8Z" stroke="#000000" stroke-width="1.5" stroke-linecap="round" stroke-linejoin="round"/>
<path fill-rule="evenodd" clip-rule="evenodd" d="M15.0674 13H9.93336C9.61059 13.0004 9.29016 13.0548 8.98536 13.161C5.47535 14.372 8.81435 19 12.5004 19C16.1864 19 19.5254 14.372 16.0144 13.161C15.7099 13.0549 15.3898 13.0005 15.0674 13Z" stroke="#000000" stroke-width="1.5" stroke-linecap="round" stroke-linejoin="round"/>
</svg>